<svg width="45" height="46" viewBox="0 0 45 46" fill="none" xmlns="http://www.w3.org/2000/svg">
<g clip-path="url(#clip0_2_137)">
<path d="M28.1023 22.8312L32.2341 20.7857H46L43.9545 16.6948H35.8341L40.7227 10.2107L38.6977 6.1198L30.3932 17.1039L26.2614 19.1698L27.0795 14.6493L35.425 3.6448L30.9455 2.82661L23.5 12.6039L16.1364 2.78571L11.6364 3.60389L19.9409 14.6493L20.7591 19.1698L16.9955 17.288L16.6682 17.1243L8.36364 6.05843L6.31818 10.1493L11.2273 16.6948H3.04545L1 20.7857H14.8477L18.8977 22.8312L14.7659 24.8766H1L3.04545 28.9675H11.1659L6.27727 35.4516L8.30227 39.5425L16.6068 28.5584L20.7386 26.4925L19.9205 31.013L11.575 42.0175L16.0545 42.8561L23.5 33.0584L30.8636 42.8766L35.3636 42.0584L27.0591 31.013L26.2409 26.4925L30.3318 28.538L38.6364 39.6039L40.6818 35.513L35.7727 28.9675H43.9545L46 24.8766H32.1523" fill="#402909"/>
</g>
<defs>
<clipPath id="clip0_2_137">
<rect width="45" height="45" fill="white" transform="translate(0 0.785706)"/>
</clipPath>
</defs>
</svg>
